<svg width="24" height="25" viewBox="0 0 24 25" fill="none" xmlns="http://www.w3.org/2000/svg">
<path d="M16 21.5938V19.5938C16 18.5329 15.5786 17.5155 14.8284 16.7653C14.0783 16.0152 13.0609 15.5938 12 15.5938H6C4.93913 15.5938 3.92172 16.0152 3.17157 16.7653C2.42143 17.5155 2 18.5329 2 19.5938V21.5938" stroke="#FF4D1E" stroke-width="2" stroke-linecap="round" stroke-linejoin="round"/>
<path d="M16 3.7218C16.8578 3.94417 17.6174 4.44507 18.1597 5.14586C18.702 5.84666 18.9962 6.70769 18.9962 7.5938C18.9962 8.47991 18.702 9.34094 18.1597 10.0417C17.6174 10.7425 16.8578 11.2434 16 11.4658" stroke="#FF4D1E" stroke-width="2" stroke-linecap="round" stroke-linejoin="round"/>
<path d="M22 21.5938V19.5938C21.9993 18.7075 21.7044 17.8465 21.1614 17.1461C20.6184 16.4456 19.8581 15.9453 19 15.7238" stroke="#FF4D1E" stroke-width="2" stroke-linecap="round" stroke-linejoin="round"/>
<path d="M9 11.5938C11.2091 11.5938 13 9.80289 13 7.59375C13 5.38461 11.2091 3.59375 9 3.59375C6.79086 3.59375 5 5.38461 5 7.59375C5 9.80289 6.79086 11.5938 9 11.5938Z" stroke="#FF4D1E" stroke-width="2" stroke-linecap="round" stroke-linejoin="round"/>
</svg>
