<svg width="16" height="16" viewBox="0 0 16 16" fill="none" xmlns="http://www.w3.org/2000/svg">
<g clip-path="url(#clip0_1_285)">
<path d="M9.22133 11.0455C9.35901 11.1087 9.51413 11.1232 9.66112 11.0865C9.80812 11.0497 9.93822 10.964 10.03 10.8435L10.2667 10.5335C10.3909 10.3679 10.5519 10.2335 10.737 10.1409C10.9222 10.0484 11.1263 10.0002 11.3333 10.0002H13.3333C13.6869 10.0002 14.0261 10.1406 14.2761 10.3907C14.5262 10.6407 14.6667 10.9799 14.6667 11.3335V13.3335C14.6667 13.6871 14.5262 14.0263 14.2761 14.2763C14.0261 14.5264 13.6869 14.6668 13.3333 14.6668C10.1507 14.6668 7.09848 13.4025 4.84805 11.1521C2.59761 8.90167 1.33333 5.84943 1.33333 2.66683C1.33333 2.31321 1.4738 1.97407 1.72385 1.72402C1.9739 1.47397 2.31304 1.3335 2.66666 1.3335H4.66666C5.02028 1.3335 5.35942 1.47397 5.60947 1.72402C5.85952 1.97407 5.99999 2.31321 5.99999 2.66683V4.66683C5.99999 4.87382 5.9518 5.07797 5.85923 5.26311C5.76666 5.44825 5.63226 5.6093 5.46666 5.7335L5.15466 5.9675C5.03227 6.06095 4.94601 6.19389 4.91052 6.34373C4.87504 6.49357 4.89252 6.65108 4.95999 6.7895C5.87112 8.64007 7.36961 10.1367 9.22133 11.0455Z" stroke="#FF4D1E" stroke-width="1.33333" stroke-linecap="round" stroke-linejoin="round"/>
</g>
<defs>
<clipPath id="clip0_1_285">
<rect width="16" height="16" fill="white"/>
</clipPath>
</defs>
</svg>
