<svg width="17" height="16" viewBox="0 0 17 16" fill="none" xmlns="http://www.w3.org/2000/svg">
<path d="M13.8802 6.66667C13.8802 9.99533 10.1876 13.462 8.94756 14.5327C8.83204 14.6195 8.69143 14.6665 8.5469 14.6665C8.40236 14.6665 8.26175 14.6195 8.14623 14.5327C6.90623 13.462 3.21356 9.99533 3.21356 6.66667C3.21356 5.25218 3.77547 3.89563 4.77566 2.89543C5.77585 1.89524 7.13241 1.33333 8.5469 1.33333C9.96138 1.33333 11.3179 1.89524 12.3181 2.89543C13.3183 3.89563 13.8802 5.25218 13.8802 6.66667Z" stroke="white" stroke-width="1.33333" stroke-linecap="round" stroke-linejoin="round"/>
<path d="M8.54688 8.66667C9.65144 8.66667 10.5469 7.77124 10.5469 6.66667C10.5469 5.5621 9.65144 4.66667 8.54688 4.66667C7.44231 4.66667 6.54688 5.5621 6.54688 6.66667C6.54688 7.77124 7.44231 8.66667 8.54688 8.66667Z" stroke="white" stroke-width="1.33333" stroke-linecap="round" stroke-linejoin="round"/>
</svg>
