<svg width="16" height="16" viewBox="0 0 16 16" fill="none" xmlns="http://www.w3.org/2000/svg">
<path d="M13.3333 6.66683C13.3333 9.9955 9.64067 13.4622 8.40067 14.5328C8.28515 14.6197 8.14454 14.6667 8.00001 14.6667C7.85547 14.6667 7.71486 14.6197 7.59934 14.5328C6.35934 13.4622 2.66667 9.9955 2.66667 6.66683C2.66667 5.25234 3.22858 3.89579 4.22877 2.89559C5.22896 1.8954 6.58552 1.3335 8.00001 1.3335C9.41449 1.3335 10.771 1.8954 11.7712 2.89559C12.7714 3.89579 13.3333 5.25234 13.3333 6.66683Z" stroke="#FF4D1E" stroke-width="1.33333" stroke-linecap="round" stroke-linejoin="round"/>
<path d="M8 8.6665C9.10457 8.6665 10 7.77107 10 6.6665C10 5.56193 9.10457 4.6665 8 4.6665C6.89543 4.6665 6 5.56193 6 6.6665C6 7.77107 6.89543 8.6665 8 8.6665Z" stroke="#FF4D1E" stroke-width="1.33333" stroke-linecap="round" stroke-linejoin="round"/>
</svg>
