<svg width="32" height="33" viewBox="0 0 32 33" fill="none" xmlns="http://www.w3.org/2000/svg">
<path d="M21.3333 4.59375C20.6261 4.59375 19.9478 4.8747 19.4477 5.3748C18.9476 5.8749 18.6667 6.55317 18.6667 7.26042V15.2604C18.6667 15.9677 18.9476 16.6459 19.4477 17.146C19.9478 17.6461 20.6261 17.9271 21.3333 17.9271C21.687 17.9271 22.0261 18.0676 22.2761 18.3176C22.5262 18.5677 22.6667 18.9068 22.6667 19.2604V20.5938C22.6667 21.301 22.3857 21.9793 21.8856 22.4794C21.3855 22.9795 20.7072 23.2604 20 23.2604C19.6464 23.2604 19.3072 23.4009 19.0572 23.6509C18.8071 23.901 18.6667 24.2401 18.6667 24.5938V27.2604C18.6667 27.614 18.8071 27.9532 19.0572 28.2032C19.3072 28.4533 19.6464 28.5938 20 28.5938C22.1217 28.5938 24.1566 27.7509 25.6569 26.2506C27.1572 24.7503 28 22.7155 28 20.5938V7.26042C28 6.55317 27.7191 5.8749 27.219 5.3748C26.7189 4.8747 26.0406 4.59375 25.3333 4.59375H21.3333Z" stroke="#FF4D1E" stroke-width="2.66667" stroke-linecap="round" stroke-linejoin="round"/>
<path d="M6.66667 4.59375C5.95942 4.59375 5.28115 4.8747 4.78105 5.3748C4.28095 5.8749 4 6.55317 4 7.26042V15.2604C4 15.9677 4.28095 16.6459 4.78105 17.146C5.28115 17.6461 5.95942 17.9271 6.66667 17.9271C7.02029 17.9271 7.35943 18.0676 7.60948 18.3176C7.85952 18.5677 8 18.9068 8 19.2604V20.5938C8 21.301 7.71905 21.9793 7.21895 22.4794C6.71885 22.9795 6.04058 23.2604 5.33333 23.2604C4.97971 23.2604 4.64057 23.4009 4.39052 23.6509C4.14048 23.901 4 24.2401 4 24.5938V27.2604C4 27.614 4.14048 27.9532 4.39052 28.2032C4.64057 28.4533 4.97971 28.5938 5.33333 28.5938C7.45507 28.5938 9.4899 27.7509 10.9902 26.2506C12.4905 24.7503 13.3333 22.7155 13.3333 20.5938V7.26042C13.3333 6.55317 13.0524 5.8749 12.5523 5.3748C12.0522 4.8747 11.3739 4.59375 10.6667 4.59375H6.66667Z" stroke="#FF4D1E" stroke-width="2.66667" stroke-linecap="round" stroke-linejoin="round"/>
</svg>
