<svg width="24" height="25" viewBox="0 0 24 25" fill="none" xmlns="http://www.w3.org/2000/svg">
<path d="M20 13.5937C20 18.5937 16.5 21.0937 12.34 22.5437C12.1222 22.6175 11.8855 22.614 11.67 22.5337C7.5 21.0937 4 18.5937 4 13.5937V6.59371C4 6.32849 4.10536 6.07414 4.29289 5.8866C4.48043 5.69907 4.73478 5.59371 5 5.59371C7 5.59371 9.5 4.39371 11.24 2.87371C11.4519 2.69271 11.7214 2.59326 12 2.59326C12.2786 2.59326 12.5481 2.69271 12.76 2.87371C14.51 4.40371 17 5.59371 19 5.59371C19.2652 5.59371 19.5196 5.69907 19.7071 5.8866C19.8946 6.07414 20 6.32849 20 6.59371V13.5937Z" stroke="#FF4D1E" stroke-width="2" stroke-linecap="round" stroke-linejoin="round"/>
</svg>
