<svg width="24" height="25" viewBox="0 0 24 25" fill="none" xmlns="http://www.w3.org/2000/svg">
<path d="M9.671 4.72978C9.7261 4.15012 9.99533 3.61182 10.4261 3.22006C10.8569 2.82829 11.4182 2.61121 12.0005 2.61121C12.5828 2.61121 13.1441 2.82829 13.5749 3.22006C14.0057 3.61182 14.2749 4.15012 14.33 4.72978C14.3631 5.10423 14.486 5.4652 14.6881 5.78212C14.8903 6.09904 15.1659 6.36259 15.4915 6.55046C15.8171 6.73832 16.1831 6.84498 16.5587 6.8614C16.9343 6.87782 17.3082 6.80352 17.649 6.64478C18.1781 6.40456 18.7777 6.3698 19.331 6.54727C19.8843 6.72473 20.3518 7.10173 20.6425 7.60488C20.9332 8.10804 21.0263 8.70135 20.9036 9.26935C20.781 9.83735 20.4514 10.3394 19.979 10.6778C19.6714 10.8936 19.4203 11.1804 19.2469 11.5138C19.0736 11.8472 18.983 12.2175 18.983 12.5933C18.983 12.9691 19.0736 13.3393 19.2469 13.6728C19.4203 14.0062 19.6714 14.2929 19.979 14.5088C20.4514 14.8472 20.781 15.3492 20.9036 15.9172C21.0263 16.4852 20.9332 17.0785 20.6425 17.5817C20.3518 18.0848 19.8843 18.4618 19.331 18.6393C18.7777 18.8168 18.1781 18.782 17.649 18.5418C17.3082 18.383 16.9343 18.3087 16.5587 18.3252C16.1831 18.3416 15.8171 18.4482 15.4915 18.6361C15.1659 18.824 14.8903 19.0875 14.6881 19.4044C14.486 19.7214 14.3631 20.0823 14.33 20.4568C14.2749 21.0364 14.0057 21.5747 13.5749 21.9665C13.1441 22.3583 12.5828 22.5754 12.0005 22.5754C11.4182 22.5754 10.8569 22.3583 10.4261 21.9665C9.99533 21.5747 9.7261 21.0364 9.671 20.4568C9.63794 20.0822 9.5151 19.7211 9.31286 19.4041C9.11063 19.087 8.83497 18.8234 8.50923 18.6355C8.18349 18.4476 7.81727 18.341 7.44158 18.3247C7.06589 18.3084 6.6918 18.3828 6.351 18.5418C5.82189 18.782 5.22233 18.8168 4.669 18.6393C4.11567 18.4618 3.64817 18.0848 3.35748 17.5817C3.06679 17.0785 2.97371 16.4852 3.09636 15.9172C3.219 15.3492 3.5486 14.8472 4.021 14.5088C4.32862 14.2929 4.57973 14.0062 4.75309 13.6728C4.92645 13.3393 5.01695 12.9691 5.01695 12.5933C5.01695 12.2175 4.92645 11.8472 4.75309 11.5138C4.57973 11.1804 4.32862 10.8936 4.021 10.6778C3.54926 10.3392 3.22025 9.83737 3.0979 9.26976C2.97555 8.70215 3.06861 8.10932 3.35898 7.60649C3.64936 7.10366 4.11631 6.72676 4.66909 6.54902C5.22187 6.37128 5.82098 6.40541 6.35 6.64478C6.69076 6.80352 7.06474 6.87782 7.4403 6.8614C7.81586 6.84498 8.18193 6.73832 8.50754 6.55046C8.83314 6.36259 9.10869 6.09904 9.31086 5.78212C9.51304 5.4652 9.63588 5.10423 9.669 4.72978" stroke="#FF4D1E" stroke-width="2" stroke-linecap="round" stroke-linejoin="round"/>
<path d="M12 15.5938C13.6569 15.5938 15 14.2506 15 12.5938C15 10.9369 13.6569 9.59375 12 9.59375C10.3431 9.59375 9 10.9369 9 12.5938C9 14.2506 10.3431 15.5938 12 15.5938Z" stroke="#FF4D1E" stroke-width="2" stroke-linecap="round" stroke-linejoin="round"/>
</svg>
