<svg width="24" height="25" viewBox="0 0 24 25" fill="none" xmlns="http://www.w3.org/2000/svg">
<path d="M14 18.5938V6.59375C14 6.06332 13.7893 5.55461 13.4142 5.17954C13.0391 4.80446 12.5304 4.59375 12 4.59375H4C3.46957 4.59375 2.96086 4.80446 2.58579 5.17954C2.21071 5.55461 2 6.06332 2 6.59375V17.5938C2 17.859 2.10536 18.1133 2.29289 18.3009C2.48043 18.4884 2.73478 18.5938 3 18.5938H5" stroke="#FF4D1E" stroke-width="2" stroke-linecap="round" stroke-linejoin="round"/>
<path d="M15 18.5938H9" stroke="#FF4D1E" stroke-width="2" stroke-linecap="round" stroke-linejoin="round"/>
<path d="M19 18.5938H21C21.2652 18.5938 21.5196 18.4884 21.7071 18.3009C21.8946 18.1133 22 17.859 22 17.5938V13.9438C21.9996 13.7168 21.922 13.4968 21.78 13.3197L18.3 8.96975C18.2065 8.85263 18.0878 8.75803 17.9528 8.69295C17.8178 8.62787 17.6699 8.59396 17.52 8.59375H14" stroke="#FF4D1E" stroke-width="2" stroke-linecap="round" stroke-linejoin="round"/>
<path d="M17 20.5938C18.1046 20.5938 19 19.6983 19 18.5938C19 17.4892 18.1046 16.5938 17 16.5938C15.8954 16.5938 15 17.4892 15 18.5938C15 19.6983 15.8954 20.5938 17 20.5938Z" stroke="#FF4D1E" stroke-width="2" stroke-linecap="round" stroke-linejoin="round"/>
<path d="M7 20.5938C8.10457 20.5938 9 19.6983 9 18.5938C9 17.4892 8.10457 16.5938 7 16.5938C5.89543 16.5938 5 17.4892 5 18.5938C5 19.6983 5.89543 20.5938 7 20.5938Z" stroke="#FF4D1E" stroke-width="2" stroke-linecap="round" stroke-linejoin="round"/>
</svg>
