<svg width="16" height="17" viewBox="0 0 16 17" fill="none" xmlns="http://www.w3.org/2000/svg">
<path d="M7.68335 2.1236C7.71257 2.06457 7.7577 2.01489 7.81365 1.98015C7.86961 1.94541 7.93416 1.927 8.00002 1.927C8.06588 1.927 8.13043 1.94541 8.18638 1.98015C8.24234 2.01489 8.28747 2.06457 8.31669 2.1236L9.85669 5.24293C9.95814 5.44824 10.1079 5.62587 10.2931 5.76057C10.4783 5.89526 10.6934 5.98301 10.92 6.01626L14.364 6.52026C14.4293 6.52972 14.4906 6.55725 14.541 6.59973C14.5914 6.64222 14.629 6.69796 14.6494 6.76067C14.6698 6.82337 14.6722 6.89054 14.6564 6.95456C14.6406 7.01858 14.6072 7.0769 14.56 7.12293L12.0694 9.54826C11.9051 9.70833 11.7822 9.90592 11.7112 10.124C11.6403 10.3421 11.6234 10.5742 11.662 10.8003L12.25 14.2269C12.2615 14.2922 12.2545 14.3593 12.2297 14.4207C12.2049 14.4821 12.1633 14.5353 12.1097 14.5743C12.0561 14.6132 11.9927 14.6363 11.9266 14.6409C11.8605 14.6455 11.7945 14.6314 11.736 14.6003L8.65735 12.9816C8.4545 12.8751 8.22881 12.8194 7.99969 12.8194C7.77057 12.8194 7.54487 12.8751 7.34202 12.9816L4.26402 14.6003C4.20557 14.6312 4.13962 14.6451 4.07365 14.6404C4.00769 14.6357 3.94437 14.6126 3.89088 14.5737C3.8374 14.5348 3.79591 14.4817 3.77112 14.4204C3.74634 14.3591 3.73926 14.2921 3.75069 14.2269L4.33802 10.8009C4.37682 10.5748 4.36001 10.3425 4.28904 10.1243C4.21808 9.90606 4.09509 9.70837 3.93069 9.54826L1.44002 7.1236C1.39242 7.07762 1.35868 7.0192 1.34266 6.95498C1.32664 6.89077 1.32898 6.82334 1.34941 6.76039C1.36983 6.69744 1.40753 6.64149 1.4582 6.59892C1.50888 6.55635 1.57049 6.52886 1.63602 6.5196L5.07935 6.01626C5.30619 5.98326 5.52161 5.89564 5.70708 5.76092C5.89254 5.62621 6.04249 5.44845 6.14402 5.24293L7.68335 2.1236Z" fill="#FDC700" stroke="#FDC700" stroke-width="1.33333" stroke-linecap="round" stroke-linejoin="round"/>
</svg>
